<?xml version="1.0" encoding="UTF-8"?>
<svg id="Capa_1" data-name="Capa 1" xmlns="http://www.w3.org/2000/svg" viewBox="0 0 353.07 353.6">
  <defs>
    <style>
      .cls-1 {
        fill: #fff;
      }

      .cls-2 {
        fill: #1877f2;
        fill-rule: evenodd;
      }
    </style>
  </defs>
  <path class="cls-2" d="M56.47,0h240.13c31.06,0,56.47,25.41,56.47,56.47v240.13c0,31.06-25.41,56.47-56.47,56.47H56.47c-31.06,0-56.47-25.41-56.47-56.47V56.47C0,25.41,25.41,0,56.47,0h0Z"/>
  <path class="cls-1" d="M128.2,353.07h63.47v-127.1h57.19l6.28-63.15h-63.47v-31.89c0-8.76,7.1-15.87,15.87-15.87h47.6v-63.47h-47.6c-43.82,0-79.34,35.52-79.34,79.34v31.89h-31.74l-6.28,63.15h38.02v127.1Z"/>
</svg>