<?xml version="1.0" encoding="UTF-8"?>
<svg id="Capa_1" data-name="Capa 1" xmlns="http://www.w3.org/2000/svg" xmlns:xlink="http://www.w3.org/1999/xlink" viewBox="0 0 353.6 353.6">
  <defs>
    <style>
      .cls-1 {
        fill: #fff;
      }

      .cls-2 {
        fill: url(#Degradado_sin_nombre_17);
      }

      .cls-3 {
        fill: url(#Degradado_sin_nombre_18);
      }
    </style>
    <radialGradient id="Degradado_sin_nombre_18" data-name="Degradado sin nombre 18" cx="-2841.73" cy="1771.18" fx="-2841.73" fy="1771.18" r="1.38" gradientTransform="translate(418048.51 -720608.45) rotate(-90) scale(253.71 -235.98)" gradientUnits="userSpaceOnUse">
      <stop offset="0" stop-color="#fd5"/>
      <stop offset=".1" stop-color="#fd5"/>
      <stop offset=".5" stop-color="#ff543e"/>
      <stop offset="1" stop-color="#c837ab"/>
    </radialGradient>
    <radialGradient id="Degradado_sin_nombre_17" data-name="Degradado sin nombre 17" cx="-2841.88" cy="1787.89" fx="-2841.88" fy="1787.89" r="1.42" gradientTransform="translate(-756365.1 480102.37) rotate(78.68) scale(113.41 -467.49)" gradientUnits="userSpaceOnUse">
      <stop offset="0" stop-color="#3771c8"/>
      <stop offset=".13" stop-color="#3771c8"/>
      <stop offset="1" stop-color="#60f" stop-opacity="0"/>
    </radialGradient>
  </defs>
  <rect class="cls-3" width="353.6" height="353.6" rx="54.23" ry="54.23"/>
  <rect class="cls-2" width="353.6" height="353.6" rx="54.23" ry="54.23"/>
  <path class="cls-1" d="M176.81,49.83c-34.48,0-38.81.15-52.35.77-13.52.62-22.74,2.76-30.82,5.9-8.35,3.24-15.44,7.58-22.49,14.64-7.06,7.06-11.4,14.14-14.65,22.49-3.15,8.08-5.29,17.31-5.9,30.82-.61,13.54-.76,17.87-.76,52.36s.15,38.8.77,52.34c.62,13.52,2.76,22.74,5.9,30.82,3.25,8.35,7.58,15.44,14.64,22.49,7.06,7.06,14.14,11.41,22.48,14.65,8.08,3.14,17.31,5.28,30.82,5.9,13.54.62,17.87.77,52.35.77s38.8-.15,52.34-.77c13.52-.62,22.75-2.76,30.83-5.9,8.35-3.24,15.42-7.59,22.48-14.65,7.06-7.06,11.4-14.14,14.65-22.49,3.12-8.08,5.26-17.31,5.9-30.82.61-13.54.77-17.86.77-52.34s-.16-38.81-.77-52.35c-.63-13.52-2.78-22.74-5.9-30.82-3.25-8.35-7.59-15.44-14.65-22.49-7.06-7.06-14.13-11.4-22.48-14.64-8.09-3.14-17.33-5.28-30.84-5.9-13.54-.62-17.86-.77-52.35-.77h.04ZM165.42,72.71c3.38,0,7.15,0,11.39,0,33.9,0,37.92.12,51.31.73,12.38.57,19.1,2.63,23.57,4.37,5.93,2.3,10.15,5.05,14.59,9.5,4.44,4.44,7.19,8.68,9.5,14.6,1.74,4.47,3.81,11.19,4.37,23.57.61,13.38.74,17.4.74,51.29s-.13,37.91-.74,51.29c-.57,12.38-2.63,19.1-4.37,23.57-2.3,5.93-5.06,10.14-9.5,14.59-4.44,4.44-8.66,7.19-14.59,9.5-4.47,1.75-11.19,3.81-23.57,4.38-13.38.61-17.4.74-51.31.74s-37.92-.13-51.31-.74c-12.38-.57-19.1-2.64-23.58-4.38-5.92-2.3-10.16-5.05-14.6-9.5-4.44-4.44-7.19-8.67-9.5-14.59-1.74-4.47-3.81-11.19-4.37-23.57-.61-13.38-.73-17.4-.73-51.31s.12-37.91.73-51.29c.57-12.38,2.63-19.1,4.37-23.57,2.3-5.93,5.06-10.16,9.5-14.6s8.68-7.2,14.6-9.5c4.48-1.75,11.2-3.81,23.58-4.38,11.71-.53,16.25-.69,39.91-.71v.03ZM244.59,93.8c-8.41,0-15.24,6.82-15.24,15.23s6.82,15.24,15.24,15.24,15.24-6.82,15.24-15.24-6.82-15.24-15.24-15.24h0ZM176.81,111.6c-36.01,0-65.2,29.2-65.2,65.2s29.2,65.19,65.2,65.19,65.19-29.18,65.19-65.19-29.19-65.2-65.2-65.2h0ZM176.81,134.48c23.37,0,42.32,18.95,42.32,42.32s-18.95,42.32-42.32,42.32-42.32-18.95-42.32-42.32,18.95-42.32,42.32-42.32"/>
</svg>