<?xml version="1.0" encoding="UTF-8"?>
<svg id="Capa_1" data-name="Capa 1" xmlns="http://www.w3.org/2000/svg" viewBox="0 0 2048 2048">
  <defs>
    <style>
      .cls-1 {
        fill: #fff;
      }

      .cls-1, .cls-2 {
        fill-rule: evenodd;
      }

      .cls-2 {
        fill: #009de1;
      }
    </style>
  </defs>
  <path class="cls-2" d="M616.91,1601.25c86.61-37.58,222.41,16.27,291.06,38.64,61.9,20.18,254.2,63.66,287.07,81.6-154.98,90.37-536.11-41.34-576.74-109.11l-1.38-11.13h0ZM967,563.03c28.54,3.61,54.52,16.59,72.85,32.55-39.24-.17-88.03,9.38-129.72,22.39-58.06,18.12-106.11,47.16-152.8,85.8-44.22,36.6-77.16,82.05-98.56,135.28-23.78,59.17-31.77,123.68-30.22,187.12,1.55,62.89,18.69,137.04,42.82,202.56l-40.76,6.92c-24.09-68.45-40.95-147.19-42.47-208.52-1.71-68.92,7.24-138.86,33.09-203.13,23.91-59.48,60.77-110.48,110.28-151.45,50.88-42.1,103.32-73.49,166.57-93.23,22.62-7.05,41.73-11.7,68.93-16.28h0ZM1492.21,1537.58c-53.27,20.06-169.06,53.38-392.59-37.35-217.74-88.38-398.16-145.59-629.34-103.47,63.03-157.61,329.21-157.96,492.08-100.75,50.32,17.68,98.08,35.16,143.95,50.84,143.55,49.08,466.16,92.26,634.83-96.28-44.47,135.95-178.28,260.41-248.94,287.01h0ZM1780.8,1199.34c2.18-11.88,1.04-28.97-12.88-27.56-13.92,1.41-20.97,13.53-27.07,22.8-115.37,175.32-419.43,185.34-634.53,109.88-131.21-46.04-269.32-124.84-267.84-326.9.85-114.05,50.96-208.29,157.32-253.34,211.69-89.69,165.51,211.76,259.43,304.21,50.5,49.69,186.72,43.49,212.56-79.06,147.07,69.48,234.13-121.63,170.19-221.91,19.78-9.85,41.15-45.1,17.79-99.04-84.56-195.11-506.32-502.71-983.34-236.8-123.08,68.78-280.91,215.49-323.02,368.71-145.18,374.45,4.84,713.43,258.86,890.34,426.58,297.07,846.44,14.07,938.92-62.92,76.17-63.4,198.51-197.02,233.62-388.41h0ZM400.43,723.02c90.34-225.89,411.1-422.62,697.52-399.95,301.13,23.82,488.12,260.32,512.7,308.87,28,55.36-.63,90.81-44.3,63.48,59.84,24.33,91.83,147.59,14.77,207.84-41.93,32.77-113.4,23.74-133.94-16.03-13.34,70.7-65.07,103.94-116.88,87.14-81.69-26.48-73.29-171.79-106.48-242.34-203.84-433.26-702.85-148.07-823.4-9.02h0Z"/>
  <path class="cls-1" d="M1577.19,701.08c-3.48-1.45-7.11-3.32-10.83-5.66,3.72,1.52,7.34,3.41,10.83,5.66h0ZM1610.66,631.94c-24.59-48.55-211.57-285.05-512.7-308.87-286.42-22.66-607.18,174.06-697.52,399.95,120.54-139.06,619.55-424.24,823.4,9.02,33.19,70.55,24.79,215.86,106.48,242.34,51.81,16.79,103.54-16.44,116.88-87.14,20.54,39.77,92.01,48.8,133.94,16.03,72.27-56.5,48.64-168.4-3.94-202.18,37.31,15.48,59.08-18.51,33.47-69.14h0Z"/>
  <path class="cls-1" d="M910.13,617.96c41.69-13.01,90.47-22.56,129.72-22.39-18.32-15.96-44.31-28.94-72.85-32.55-27.19,4.58-46.3,9.23-68.93,16.28-63.26,19.74-115.69,51.14-166.57,93.23-49.51,40.96-86.36,91.96-110.28,151.45-25.85,64.28-34.8,134.21-33.09,203.13,1.52,61.33,18.38,140.07,42.47,208.52l40.76-6.92c-24.13-65.51-41.27-139.66-42.82-202.56-1.56-63.44,6.44-127.95,30.22-187.12,21.4-53.23,54.35-98.68,98.56-135.28,46.69-38.64,94.75-67.67,152.8-85.8h0Z"/>
  <path class="cls-1" d="M1106.31,1346.85c-45.87-15.68-93.63-33.16-143.95-50.84-162.86-57.21-429.05-56.86-492.08,100.75,231.17-42.12,411.6,15.09,629.34,103.47,223.53,90.73,339.32,57.41,392.59,37.35,70.66-26.6,204.47-151.05,248.94-287.01-168.67,188.54-491.28,145.36-634.83,96.28h0Z"/>
  <path class="cls-1" d="M907.96,1639.89c-68.64-22.37-204.45-76.22-291.06-38.64l1.38,11.13c40.63,67.77,421.76,199.48,576.74,109.11-32.86-17.94-225.17-61.41-287.07-81.6h0Z"/>
</svg>