<?xml version="1.0" encoding="UTF-8"?>
<svg id="Capa_1" data-name="Capa 1" xmlns="http://www.w3.org/2000/svg" viewBox="0 0 353.07 353.07">
  <defs>
    <style>
      .cls-1 {
        fill: #fff;
      }

      .cls-2 {
        fill: #ff004f;
      }

      .cls-3 {
        fill: #00f2ea;
      }

      .cls-4 {
        fill-rule: evenodd;
      }
    </style>
  </defs>
  <path class="cls-4" d="M56.47,0h240.13c31.06,0,56.47,25.41,56.47,56.47v240.13c0,31.06-25.41,56.47-56.47,56.47H56.47c-31.06,0-56.47-25.41-56.47-56.47V56.47C0,25.41,25.41,0,56.47,0h0Z"/>
  <g>
    <path class="cls-2" d="M235.86,146.13c16.71,11.94,37.18,18.96,59.29,18.96v-42.52c-4.18,0-8.36-.43-12.45-1.3v33.47c-22.11,0-42.57-7.02-59.29-18.96v86.77c0,43.41-35.21,78.6-78.64,78.6-16.2,0-31.27-4.9-43.78-13.29,14.28,14.59,34.19,23.65,56.22,23.65,43.43,0,78.64-35.19,78.64-78.6v-86.77h0ZM251.22,103.23c-8.54-9.32-14.15-21.37-15.36-34.7v-5.47h-11.8c2.97,16.93,13.1,31.4,27.16,40.17M128.47,254.54c-4.77-6.25-7.35-13.9-7.34-21.77,0-19.85,16.1-35.95,35.97-35.95,3.7,0,7.38.57,10.91,1.68v-43.47c-4.12-.56-8.29-.81-12.45-.72v33.84c-3.53-1.12-7.21-1.69-10.92-1.68-19.87,0-35.97,16.1-35.97,35.95,0,14.04,8.05,26.2,19.79,32.12"/>
    <path class="cls-1" d="M223.41,135.77c16.71,11.94,37.18,18.96,59.29,18.96v-33.47c-12.34-2.63-23.26-9.07-31.48-18.04-14.06-8.77-24.19-23.23-27.16-40.17h-30.99v169.83c-.07,19.8-16.15,35.83-35.97,35.83-11.68,0-22.06-5.57-28.63-14.19-11.74-5.92-19.79-18.08-19.79-32.11,0-19.85,16.1-35.95,35.97-35.95,3.81,0,7.48.59,10.92,1.68v-33.84c-42.67.88-76.98,35.72-76.98,78.58,0,21.39,8.54,40.78,22.41,54.95,12.51,8.4,27.57,13.29,43.78,13.29,43.43,0,78.64-35.19,78.64-78.6v-86.77Z"/>
    <path class="cls-3" d="M282.7,121.26v-9.05c-11.13.02-22.04-3.1-31.48-8.99,8.36,9.14,19.36,15.45,31.48,18.04M224.06,63.06c-.28-1.62-.5-3.25-.65-4.88v-5.47h-42.79v169.84c-.07,19.8-16.14,35.83-35.97,35.83-5.62,0-11.16-1.31-16.18-3.84,6.57,8.62,16.95,14.19,28.63,14.19,19.82,0,35.9-16.03,35.97-35.83V63.06h30.99ZM155.57,154.32v-9.63c-3.58-.49-7.18-.73-10.79-.73-43.43,0-78.64,35.19-78.64,78.59,0,27.21,13.84,51.2,34.86,65.3-13.87-14.17-22.41-33.56-22.41-54.95,0-42.85,34.31-77.69,76.98-78.58"/>
  </g>
</svg>